<?xml version="1.0" encoding="UTF-8"?>
<svg width="16px" height="16px" viewBox="0 0 16 16" version="1.1" xmlns="http://www.w3.org/2000/svg" xmlns:xlink="http://www.w3.org/1999/xlink">
    <!-- Generator: Sketch 64 (93537) - https://sketch.com -->
    <title>下载</title>
    <desc>Created with Sketch.</desc>
    <g id="页面-1" stroke="none" stroke-width="1" fill="none" fill-rule="evenodd">
        <g id="HAPM_组件详情-版本" transform="translate(-960.000000, -372.000000)" fill="#000000">
            <g id="2-HPM-组件详情">
                <g id="编组-5" transform="translate(40.000000, 145.000000)">
                    <g id="编组-7" transform="translate(20.000000, 215.000000)">
                        <g id="编组-6">
                            <g id="下载" transform="translate(900.000000, 12.000000)">
                                <path d="M8.66666667,0.666666667 C8.66666667,0.298666667 8.4,0 8,0 C7.6,0 7.33333333,0.298666667 7.33333333,0.666666667 L7.33333333,8.39066667 L5.13333333,6.19533333 C4.86666667,5.93533333 4.46666667,5.93533333 4.2,6.19533333 C3.93333333,6.456 3.93333333,6.878 4.2,7.13866667 L7.53333333,10.472 C7.66666667,10.5966667 7.8,10.6666667 8,10.6666667 C8.2,10.6666667 8.33333333,10.5966667 8.46666667,10.472 L11.8,7.13866667 C12.0666667,6.878 12.0666667,6.456 11.8,6.19533333 C11.5333333,5.93533333 11.1333333,5.93533333 10.8666667,6.19533333 L8.66666667,8.39066667 L8.66666667,0.666666667 Z M1.33333333,9.33333333 C1.33333333,8.96533333 1.06666667,8.66666667 0.666666667,8.66666667 C0.266666667,8.66666667 0,8.96533333 0,9.33333333 L0,14 C0,15.1046667 0.866666667,16 2,16 L14,16 C15.1333333,16 16,15.1046667 16,14 L16,9.33333333 C16,8.96533333 15.7333333,8.66666667 15.3333333,8.66666667 C14.9333333,8.66666667 14.6666667,8.96533333 14.6666667,9.33333333 L14.6666667,14 C14.6666667,14.368 14.4,14.6666667 14,14.6666667 L2,14.6666667 C1.6,14.6666667 1.33333333,14.368 1.33333333,14 L1.33333333,9.33333333 Z" id="Shape"></path>
                            </g>
                        </g>
                    </g>
                </g>
            </g>
        </g>
    </g>
</svg>