<?xml version="1.0" encoding="UTF-8"?>
<svg width="141px" height="130px" viewBox="0 0 141 130" version="1.1" xmlns="http://www.w3.org/2000/svg" xmlns:xlink="http://www.w3.org/1999/xlink">
    <!-- Generator: Sketch 64 (93537) - https://sketch.com -->
    <title>更多类型插画</title>
    <desc>Created with Sketch.</desc>
    <defs>
        <filter x="-9.6%" y="-14.6%" width="119.2%" height="129.2%" filterUnits="objectBoundingBox" id="filter-1">
            <feOffset dx="0" dy="8" in="SourceAlpha" result="shadowOffsetOuter1"></feOffset>
            <feGaussianBlur stdDeviation="8" in="shadowOffsetOuter1" result="shadowBlurOuter1"></feGaussianBlur>
            <feColorMatrix values="0 0 0 0 0   0 0 0 0 0   0 0 0 0 0  0 0 0 0 0" type="matrix" in="shadowBlurOuter1" result="shadowMatrixOuter1"></feColorMatrix>
            <feMerge>
                <feMergeNode in="shadowMatrixOuter1"></feMergeNode>
                <feMergeNode in="SourceGraphic"></feMergeNode>
            </feMerge>
        </filter>
        <polygon id="path-2" points="14.8301327 18.5704467 63.9912405 23.4269062 63.9912405 84 14.8301327 73.1792089"></polygon>
        <polygon id="path-4" points="63.9912405 15.4914089 107.775352 23.6456201 107.775352 84 63.9912405 69.9029928"></polygon>
    </defs>
    <g id="页面-1" stroke="none" stroke-width="1" fill="none" fill-rule="evenodd">
        <g id="HPM2-1产品定制--弹窗默认样式备份" transform="translate(-891.000000, -287.000000)">
            <g id="编组-25备份-2" transform="translate(177.500000, 125.000000)">
                <g id="编组-123备份" transform="translate(544.000000, 97.000000)">
                    <g id="编组-9备份-4" filter="url(#filter-1)">
                        <g id="编组-3" transform="translate(160.000000, 64.500000)">
                            <g id="更多类型插画" transform="translate(9.000000, 0.000000)">
                                <path d="M52.6420615,5.85694045 C52.6712508,5.90749778 52.6979675,5.95944067 52.7221119,6.01257531 L56.8342789,15.0622442 C57.2070622,15.8826305 56.9127214,16.8411571 56.1533956,17.279554 L55.8949391,17.428774 C55.1309168,17.8698824 54.1472148,17.6397432 53.6258377,16.8979128 L47.9144345,8.77156336 C47.3573456,7.97892116 47.5288634,6.89371101 48.2975302,6.34767864 C48.3399876,6.31751854 48.3838307,6.28937759 48.428922,6.2633441 L50.2866147,5.1908047 C51.1029688,4.71948244 52.1575383,5.01772157 52.6420615,5.85694045 Z M92.2411753,5.11923894 C92.2885233,5.14092801 92.3348157,5.16482678 92.379907,5.19086027 L94.2375997,6.26339968 C95.0539538,6.73472194 95.3229559,7.79712544 94.8384327,8.63634432 C94.8092434,8.68690165 94.7776178,8.73601041 94.7436741,8.78348736 L88.9625144,16.8695629 C88.4384307,17.6025959 87.4611519,17.8269526 86.7018262,17.3885556 L86.4433696,17.2393357 C85.6793474,16.7982272 85.3868028,15.8312467 85.7685582,15.0088057 L89.9504817,5.99941064 C90.3583855,5.12063639 91.3839639,4.7265701 92.2411753,5.11923894 Z M72.4058077,1 C73.3484522,1 74.1126166,1.78556739 74.1126166,2.75461388 C74.1126166,2.81299246 74.1097825,2.87133466 74.1041248,2.92942279 L73.1405314,12.8227495 C73.0531781,13.7196165 72.3190082,14.4025545 71.4422144,14.4025545 L71.1437745,14.4025545 C70.2615575,14.4025545 69.5247162,13.711397 69.4441056,12.8082645 L68.56106,2.91493783 C68.474928,1.9499451 69.1660718,1.09588445 70.104773,1.00733998 C70.1566222,1.00244922 70.2086619,1 70.2607289,1 L72.4058077,1 Z" id="形状结合" fill="#D1DCFF"></path>
                                <path d="M127.805599,114.810103 C123.99215,117.48126 119.576578,119.551406 114.960298,120.953763 C112.150389,121.821889 109.273576,122.356121 106.396764,122.623236 C100.977653,123.157468 95.6254445,122.623236 90.8753593,120.820205 C74.7518309,114.609766 56.8888347,128.499781 40.7653064,129.568244 C40.5645985,129.568244 40.2969881,129.568244 40.0293777,129.635023 C35.881416,129.835359 31.8672596,129.100791 28.0538109,126.963866 C25.0431936,125.294393 22.0994789,123.090689 19.2226667,120.419532 C4.03577485,106.262401 -6.73554495,84.2921372 8.0499313,62.8561045 C25.5784145,37.4801156 33.4535831,41.6204085 43.039995,44.9593544 C52.6264069,48.2983003 57.0560913,50.0948097 74.1162562,49.2266838 C91.1764211,48.3585579 92.7094316,46.895943 110.438623,41.6204085 C128.167814,36.344874 134.964178,65.7943769 139.848068,88.9666615 C142.055854,99.6512884 136.502938,108.733221 127.805599,114.810103 Z" id="Path" fill="#F2F5FC"></path>
                                <g id="编组-2" transform="translate(10.000000, 23.666667)">
                                    <polygon id="Path-136" fill="#BECCFA" points="14.8301327 17.8950947 57.0779597 9.33333333 57.0779597 22.419244"></polygon>
                                    <polygon id="Path-137" fill="#D1DCFF" points="107.00721 15.5819689 57.0779597 9.33333333 57.0779597 27.0378007 74.032721 27.0378007"></polygon>
                                    <mask id="mask-3" fill="white">
                                        <use xlink:href="#path-2"></use>
                                    </mask>
                                    <use id="Rectangle" fill="#D1DCFF" xlink:href="#path-2"></use>
                                    <polygon id="Path-138" fill="#BECCFA" mask="url(#mask-3)" points="63.9912405 22.6507821 54.9192722 47.2247423 4.58823529 35.7607945 15.1030022 17.3580756"></polygon>
                                    <mask id="mask-5" fill="white">
                                        <use xlink:href="#path-4"></use>
                                    </mask>
                                    <use id="Rectangle-Copy-6" fill="#DFE8FF" transform="translate(85.883296, 49.745704) scale(-1, 1) translate(-85.883296, -49.745704) " xlink:href="#path-4"></use>
                                    <polygon id="Path-139" fill="#D1DCFF" mask="url(#mask-5)" points="63.9912405 23.054766 79.202079 47.2247423 123.394246 33.6534549 108.009546 15.4914089"></polygon>
                                    <polygon id="Path-138" fill="#E0E8FF" points="63.9912405 22.5474089 53.7455713 43.4914089 0.0497792505 33.3994999 15.1030022 17.3580756"></polygon>
                                    <polygon id="Path-139" fill="#E0E8FF" points="63.9912405 22.9157337 80.0125066 43.4914089 125.666667 32.2914089 108.009546 15.4914089"></polygon>
                                    <polygon id="Path-138" fill="#E0E8FF" transform="translate(28.970352, 9.807269) scale(1, -1) translate(-28.970352, -9.807269) " points="57.0779597 10.2812053 44.405736 18.185567 0.862745098 8.74085663 15.4993613 1.42897159"></polygon>
                                    <polygon id="Path-139" fill="#E0E8FF" transform="translate(90.440941, 8.056435) scale(1, -1) translate(-90.440941, -8.056435) " points="57.0779597 6.77953579 72.3461114 15.8762887 123.803922 9.44313171 107.775352 0.236580464"></polygon>
                                </g>
                            </g>
                        </g>
                    </g>
                </g>
            </g>
        </g>
    </g>
</svg>