<?xml version="1.0" encoding="UTF-8"?>
<svg width="32px" height="32px" viewBox="0 0 32 32" version="1.1" xmlns="http://www.w3.org/2000/svg" xmlns:xlink="http://www.w3.org/1999/xlink">
    <title>icon_close</title>
    <g id="Design" stroke="none" stroke-width="1" fill="none" fill-rule="evenodd">
        <g id="1-HPM-搜索结果" transform="translate(-1017.000000, -128.000000)">
            <g id="编组" transform="translate(0.000000, 64.000000)">
                <g id="编组-2备份" transform="translate(375.000000, 52.000000)">
                    <rect id="矩形" stroke="#333333" x="0.5" y="0.5" width="689" height="55" rx="27.5"></rect>
                    <g id="icon_close" transform="translate(642.000000, 12.000000)">
                        <rect id="32*32" opacity="0.100000001" x="0" y="0" width="32" height="32"></rect>
                        <path d="M16,5 C16.2761424,5 16.5,5.22385763 16.5,5.5 L16.5,15.5 L26.5,15.5 C26.7761424,15.5 27,15.7238576 27,16 C27,16.2761424 26.7761424,16.5 26.5,16.5 L16.5,16.5 L16.5,26.5 C16.5,26.7761424 16.2761424,27 16,27 C15.7238576,27 15.5,26.7761424 15.5,26.5 L15.5,16.5 L5.5,16.5 C5.22385763,16.5 5,16.2761424 5,16 C5,15.7238576 5.22385763,15.5 5.5,15.5 L15.5,15.5 L15.5,5.5 C15.5,5.22385763 15.7238576,5 16,5 Z" id="形状结合" fill="#1E1E1E" transform="translate(16.000000, 16.000000) rotate(-225.000000) translate(-16.000000, -16.000000) "></path>
                    </g>
                </g>
            </g>
        </g>
    </g>
</svg>