<?xml version="1.0" encoding="UTF-8"?>
<svg width="32px" height="32px" viewBox="0 0 32 32" version="1.1" xmlns="http://www.w3.org/2000/svg"
     xmlns:xlink="http://www.w3.org/1999/xlink">
    <title>包的上传者</title>
    <g id="包的上传者" stroke="none" stroke-width="3" fill="none" fill-rule="evenodd">
        <path d="M16,1.6 C23.9529004,1.6 30.4,8.0470996 30.4,16 C30.4,23.9529004 23.9529004,30.4 16,30.4 C8.0470996,30.4 1.6,23.9529004 1.6,16 C1.6,8.0470996 8.0470996,1.6 16,1.6 Z M16,20.32 C12.3289537,20.32 8.9480458,22.0252461 6.75813104,24.8565421 C9.09056935,27.2878629 12.3686954,28.8 16,28.8 C19.6328831,28.8 22.9122805,27.286548 25.2420859,24.8557503 C23.0518891,22.0258606 19.6714686,20.32 16,20.32 Z M16,3.2 C8.9307552,3.2 3.2,8.9307552 3.2,16 C3.2,18.6126367 3.9827514,21.042452 5.32653332,23.067725 C7.00942625,21.0529763 9.21853193,19.5630306 11.6983728,18.7584304 C10.2201109,17.5296436 9.28,15.6746091 9.28,13.6 C9.28,9.88864648 12.2886465,6.88 16,6.88 C19.7113535,6.88 22.72,9.88864648 22.72,13.6 C22.72,15.6742764 21.7801906,17.5290487 20.3031505,18.7617379 C22.7826307,19.5639094 24.9915604,21.053913 26.674943,23.0650298 C28.0172486,21.042452 28.8,18.6126367 28.8,16 C28.8,8.9307552 23.0692448,3.2 16,3.2 Z M16,9.12 C13.5257643,9.12 11.52,11.1257643 11.52,13.6 C11.52,16.0742357 13.5257643,18.08 16,18.08 C18.4742357,18.08 20.48,16.0742357 20.48,13.6 C20.48,11.1257643 18.4742357,9.12 16,9.12 Z"
              id="Shape" fill="#ADADAD" fill-rule="nonzero" stroke="#ADADAD" stroke-width="1"></path>
    </g>
</svg>