<?xml version="1.0" encoding="UTF-8"?>
<svg width="10px" height="10px" viewBox="0 0 10 10" version="1.1" xmlns="http://www.w3.org/2000/svg" xmlns:xlink="http://www.w3.org/1999/xlink">
    <!-- Generator: Sketch 63.1 (92452) - https://sketch.com -->
    <title>icon_close_white</title>
    <desc>Created with Sketch.</desc>
    <g id="分享/私有包--2021.4.10" stroke="none" stroke-width="1" fill="none" fill-rule="evenodd">
        <g id="4HAPM_组件详情备份-3" transform="translate(-995.000000, -386.000000)">
            <g id="编组-12" transform="translate(71.000000, 374.000000)">
                <g id="编组-14">
                    <g id="icon_close_white" transform="translate(919.000000, 7.000000)">
                        <rect id="32*32" opacity="0.100000001" x="0" y="0" width="20" height="20"></rect>
                        <path d="M10,3.125 C10.172589,3.125 10.3125,3.26491102 10.3125,3.4375 L10.312,9.687 L16.5625,9.6875 C16.735089,9.6875 16.875,9.82741102 16.875,10 C16.875,10.172589 16.735089,10.3125 16.5625,10.3125 L10.312,10.312 L10.3125,16.5625 C10.3125,16.735089 10.172589,16.875 10,16.875 C9.82741102,16.875 9.6875,16.735089 9.6875,16.5625 L9.687,10.312 L3.4375,10.3125 C3.26491102,10.3125 3.125,10.172589 3.125,10 C3.125,9.82741102 3.26491102,9.6875 3.4375,9.6875 L9.687,9.687 L9.6875,3.4375 C9.6875,3.26491102 9.82741102,3.125 10,3.125 Z" id="形状结合" fill="#E6A23C" transform="translate(10.000000, 10.000000) rotate(-225.000000) translate(-10.000000, -10.000000) "></path>
                    </g>
                </g>
            </g>
        </g>
    </g>
</svg>